<svg xmlns="http://www.w3.org/2000/svg" xmlns:xlink="http://www.w3.org/1999/xlink" version="1.1" width="128" height="128" viewBox="0 0 100 100">
	<defs>
		<g id="background">
			<path fill="url(#background-gradient)" stroke="none" d=" M 90.75 23.05 Q 89.5 23.05 88.85 24.15 88.15 25.25 88.85 26.35 97.25 40.2 95.15 56.15 93.05 71.65 81.75 82.6 70.35 93.7 54.9 95.25 32.95 97.55 17.6 81.85 2.2 66.2 4.85 44.2 6.6 30.2 16.15 19.7 25.65 9.1 39.25 5.8 50.55 3 61.7 5.95 62.85 6.3 63.7 5.65 64.6 5 64.6 3.85 64.6 2.25 62.95 1.7 52.55 -1.1 41.6 0.65 25.55 3.3 14.4 14.85 3.1 26.25 0.65 42.4 -2.95 66.9 14 84.5 30.85 102.1 55.2 99.7 72.6 97.9 85.2 85.4 97.95 72.8 99.7 55.35 101.45 38.55 92.75 24.05 92.05 23.05 90.75 23.05 Z" />
		</g>
		<mask id="mask">
			<path fill="#FFFFFF" stroke="none" d=" M 82.2 82.15 Q 95.5 68.85 95.5 49.95 95.5 31.1 82.2 17.8 68.85 4.5 50 4.5 31.15 4.5 17.8 17.8 4.5 31.1 4.5 49.95 4.5 68.85 17.8 82.15 31.15 95.45 50 95.45 68.85 95.45 82.2 82.15 Z" />
		</mask>
		<linearGradient id="background-gradient" x1="0" y1="0" y2="1" x2="0">
			<stop stop-color="#ffffff" offset="0%" />
			<stop stop-color="#46eaff" offset="100%" />
		</linearGradient>
		<g transform="translate(-99.5 -99.75)" id="picture">
			<path d="M99.5 136.208h12.708v-23.75h23.75V99.75H99.5m63.542 0v12.708h23.75v23.75H199.5V99.75m-12.708 87.292h-23.75v12.708H199.5v-36.458h-12.708m-74.584 0H99.5v36.458h36.458v-12.708h-23.75 M147.902 176.68c-.139 0-.139.129-.278.129h-.555c-.695 0-1.39-.13-2.362-.259-.834-.259-1.668-.389-2.501-.777-.834-.26-1.529-.648-2.084-.907-.556-.388-.973-.647-1.112-.906 0-.648-.139-1.295-.139-1.943v-1.943c0-4.921.417-10.101 1.112-15.54.833-5.44 2.084-11.268 3.89-17.485.139-.647.417-1.424.556-2.331.278-.907.417-1.943.694-3.108-1.111.906-2.5 2.201-4.029 4.015-1.528 1.813-3.195 4.014-5.002 6.475a116.053 116.053 0 0 0-5.14 8.289 81.115 81.115 0 0 0-4.724 9.066c-1.39 3.108-2.64 6.087-3.613 9.195-.972 2.979-1.667 5.828-1.945 8.418-2.223-.648-3.89-1.295-4.724-1.813-.833-.907-1.25-1.684-1.25-2.46 0-.778.278-1.943.834-3.368.555-1.425 1.25-3.238 2.223-5.18.972-1.943 2.084-4.274 3.473-6.735 1.39-2.46 2.918-5.051 4.585-7.9 1.945-3.238 3.751-6.217 5.558-9.066 1.806-2.85 3.612-5.44 5.418-7.641 1.806-2.331 3.474-4.274 5.14-5.958 1.668-1.683 3.335-2.978 5.003-3.885.694 0 1.528.13 2.64.518a17.05 17.05 0 0 1 3.334 1.166c1.111.388 2.084.906 2.779 1.424.833.518 1.25.907 1.39 1.166-.696 1.295-1.39 3.108-2.363 5.569-.833 2.46-1.806 5.31-2.779 8.418-.972 3.108-1.806 6.476-2.64 9.972-.833 3.497-1.528 6.864-1.945 10.102 1.112-2.46 2.362-4.921 3.752-7.64s2.917-5.31 4.585-7.901c1.667-2.59 3.195-5.051 5.001-7.512a101.223 101.223 0 0 1 5.002-6.734c1.668-2.072 3.196-3.886 4.585-5.31 1.39-1.554 2.64-2.59 3.752-3.368.694 0 1.528.13 2.64.518a17.05 17.05 0 0 1 3.334 1.166c1.111.389 2.084.907 2.918 1.425.833.518 1.25.906 1.389 1.165-1.528 2.461-2.779 5.57-4.03 9.196a126.225 126.225 0 0 0-2.917 11.397c-.834 4.014-1.39 7.9-1.806 11.915a97.816 97.816 0 0 0-.556 10.49v3.238c0 1.165 0 2.201.139 3.497-.695 0-1.39-.13-2.362-.26s-1.806-.388-2.64-.647c-.833-.26-1.667-.518-2.362-.907-.694-.388-1.25-.647-1.528-1.036 0-.647-.139-1.295-.139-1.942v-1.943c0-4.921.417-10.102 1.112-15.541.833-5.44 2.084-11.268 3.89-17.484.139-.648.417-1.425.695-2.461.277-1.036.416-2.202.694-3.367-1.39.647-2.779 1.813-4.585 3.496-1.667 1.814-3.334 3.886-5.14 6.346a116.053 116.053 0 0 0-5.141 8.29 144.368 144.368 0 0 0-4.585 9.324c-1.39 3.108-2.501 6.346-3.474 9.454s-1.389 5.828-1.667 8.419z" />
		</g>
		<linearGradient id="picture-gradient" x1="0" y1="0" y2="1" x2="0">
			<stop stop-color="#ffffff" offset="0%" />
			<stop stop-color="#e5eff9" offset="100%" />
		</linearGradient>
	</defs>
	<use xlink:href="#background" fill="url(#background-gradient)" />
	<g mask="url(#mask)">
		<g transform="
				        translate(
                                50 50
)
                            translate(0 0)  scale(0.5)  
                            translate(
                                -50 -50
)">
			<use xlink:href="#picture" fill="url(#picture-gradient)" />
		</g>
	</g>
</svg>
